<svg id="visual" viewBox="0 0 900 450" width="900" height="450" xmlns="http://www.w3.org/2000/svg" xmlns:xlink="http://www.w3.org/1999/xlink" version="1.1"><path d="M0 353L12.5 354C25 355 50 357 75 353.5C100 350 125 341 150 337.2C175 333.3 200 334.7 225 337C250 339.3 275 342.7 300 346.7C325 350.7 350 355.3 375 354.3C400 353.3 425 346.7 450 346C475 345.3 500 350.7 525 349.2C550 347.7 575 339.3 600 339.7C625 340 650 349 675 351.8C700 354.7 725 351.3 750 350.7C775 350 800 352 825 349.7C850 347.3 875 340.7 887.5 337.3L900 334L900 451L887.5 451C875 451 850 451 825 451C800 451 775 451 750 451C725 451 700 451 675 451C650 451 625 451 600 451C575 451 550 451 525 451C500 451 475 451 450 451C425 451 400 451 375 451C350 451 325 451 300 451C275 451 250 451 225 451C200 451 175 451 150 451C125 451 100 451 75 451C50 451 25 451 12.5 451L0 451Z" fill="#00518f"></path><path d="M0 352L12.5 353.2C25 354.3 50 356.7 75 357.2C100 357.7 125 356.3 150 357.8C175 359.3 200 363.7 225 363.7C250 363.7 275 359.3 300 360.5C325 361.7 350 368.3 375 370.5C400 372.7 425 370.3 450 369.2C475 368 500 368 525 367.2C550 366.3 575 364.7 600 365.5C625 366.3 650 369.7 675 369.3C700 369 725 365 750 363.7C775 362.3 800 363.7 825 366.5C850 369.3 875 373.7 887.5 375.8L900 378L900 451L887.5 451C875 451 850 451 825 451C800 451 775 451 750 451C725 451 700 451 675 451C650 451 625 451 600 451C575 451 550 451 525 451C500 451 475 451 450 451C425 451 400 451 375 451C350 451 325 451 300 451C275 451 250 451 225 451C200 451 175 451 150 451C125 451 100 451 75 451C50 451 25 451 12.5 451L0 451Z" fill="#076a9d"></path><path d="M0 379L12.5 380.8C25 382.7 50 386.3 75 387.3C100 388.3 125 386.7 150 386C175 385.3 200 385.7 225 383.7C250 381.7 275 377.3 300 378C325 378.7 350 384.3 375 388.5C400 392.7 425 395.3 450 394.8C475 394.3 500 390.7 525 390C550 389.3 575 391.7 600 390.8C625 390 650 386 675 386.8C700 387.7 725 393.3 750 392C775 390.7 800 382.3 825 380.7C850 379 875 384 887.5 386.5L900 389L900 451L887.5 451C875 451 850 451 825 451C800 451 775 451 750 451C725 451 700 451 675 451C650 451 625 451 600 451C575 451 550 451 525 451C500 451 475 451 450 451C425 451 400 451 375 451C350 451 325 451 300 451C275 451 250 451 225 451C200 451 175 451 150 451C125 451 100 451 75 451C50 451 25 451 12.5 451L0 451Z" fill="#2d82a8"></path><path d="M0 418L12.5 415.3C25 412.7 50 407.3 75 406C100 404.7 125 407.3 150 407C175 406.7 200 403.3 225 404.2C250 405 275 410 300 409.5C325 409 350 403 375 403.2C400 403.3 425 409.7 450 410.3C475 411 500 406 525 404.2C550 402.3 575 403.7 600 402.5C625 401.3 650 397.7 675 396C700 394.3 725 394.7 750 398.3C775 402 800 409 825 409.5C850 410 875 404 887.5 401L900 398L900 451L887.5 451C875 451 850 451 825 451C800 451 775 451 750 451C725 451 700 451 675 451C650 451 625 451 600 451C575 451 550 451 525 451C500 451 475 451 450 451C425 451 400 451 375 451C350 451 325 451 300 451C275 451 250 451 225 451C200 451 175 451 150 451C125 451 100 451 75 451C50 451 25 451 12.5 451L0 451Z" fill="#519ab1"></path><path d="M0 431L12.5 429.8C25 428.7 50 426.3 75 426.8C100 427.3 125 430.7 150 431C175 431.3 200 428.7 225 427.3C250 426 275 426 300 427.3C325 428.7 350 431.3 375 431.3C400 431.3 425 428.7 450 425.8C475 423 500 420 525 421.8C550 423.7 575 430.3 600 430.8C625 431.3 650 425.7 675 424.7C700 423.7 725 427.3 750 428.5C775 429.7 800 428.3 825 427.3C850 426.3 875 425.7 887.5 425.3L900 425L900 451L887.5 451C875 451 850 451 825 451C800 451 775 451 750 451C725 451 700 451 675 451C650 451 625 451 600 451C575 451 550 451 525 451C500 451 475 451 450 451C425 451 400 451 375 451C350 451 325 451 300 451C275 451 250 451 225 451C200 451 175 451 150 451C125 451 100 451 75 451C50 451 25 451 12.5 451L0 451Z" fill="#77b1bb"></path></svg>