<svg id="visual" viewBox="0 0 900 450" width="900" height="450" xmlns="http://www.w3.org/2000/svg" xmlns:xlink="http://www.w3.org/1999/xlink" version="1.1"><path d="M0 349L12.5 346.8C25 344.7 50 340.3 75 337.8C100 335.3 125 334.7 150 335C175 335.3 200 336.7 225 338.2C250 339.7 275 341.3 300 344C325 346.7 350 350.3 375 351C400 351.7 425 349.3 450 345.7C475 342 500 337 525 334.7C550 332.3 575 332.7 600 337.3C625 342 650 351 675 352.2C700 353.3 725 346.7 750 343.7C775 340.7 800 341.3 825 343.7C850 346 875 350 887.5 352L900 354L900 451L887.5 451C875 451 850 451 825 451C800 451 775 451 750 451C725 451 700 451 675 451C650 451 625 451 600 451C575 451 550 451 525 451C500 451 475 451 450 451C425 451 400 451 375 451C350 451 325 451 300 451C275 451 250 451 225 451C200 451 175 451 150 451C125 451 100 451 75 451C50 451 25 451 12.5 451L0 451Z" fill="#00518f"></path><path d="M0 365L12.5 367.5C25 370 50 375 75 374.5C100 374 125 368 150 367.5C175 367 200 372 225 370.3C250 368.7 275 360.3 300 357.5C325 354.7 350 357.3 375 358.2C400 359 425 358 450 359.3C475 360.7 500 364.3 525 365C550 365.7 575 363.3 600 361.7C625 360 650 359 675 361.7C700 364.3 725 370.7 750 373.7C775 376.7 800 376.3 825 374.8C850 373.3 875 370.7 887.5 369.3L900 368L900 451L887.5 451C875 451 850 451 825 451C800 451 775 451 750 451C725 451 700 451 675 451C650 451 625 451 600 451C575 451 550 451 525 451C500 451 475 451 450 451C425 451 400 451 375 451C350 451 325 451 300 451C275 451 250 451 225 451C200 451 175 451 150 451C125 451 100 451 75 451C50 451 25 451 12.5 451L0 451Z" fill="#076a9d"></path><path d="M0 377L12.5 377.2C25 377.3 50 377.7 75 379.8C100 382 125 386 150 386C175 386 200 382 225 381C250 380 275 382 300 383.2C325 384.3 350 384.7 375 383.7C400 382.7 425 380.3 450 381C475 381.7 500 385.3 525 385.7C550 386 575 383 600 383.8C625 384.7 650 389.3 675 391.5C700 393.7 725 393.3 750 390.5C775 387.7 800 382.3 825 380.7C850 379 875 381 887.5 382L900 383L900 451L887.5 451C875 451 850 451 825 451C800 451 775 451 750 451C725 451 700 451 675 451C650 451 625 451 600 451C575 451 550 451 525 451C500 451 475 451 450 451C425 451 400 451 375 451C350 451 325 451 300 451C275 451 250 451 225 451C200 451 175 451 150 451C125 451 100 451 75 451C50 451 25 451 12.5 451L0 451Z" fill="#2d82a8"></path><path d="M0 400L12.5 402.8C25 405.7 50 411.3 75 411.2C100 411 125 405 150 402.5C175 400 200 401 225 400.3C250 399.7 275 397.3 300 398C325 398.7 350 402.3 375 403C400 403.7 425 401.3 450 400.8C475 400.3 500 401.7 525 403.8C550 406 575 409 600 408.8C625 408.7 650 405.3 675 403.3C700 401.3 725 400.7 750 399.3C775 398 800 396 825 396.7C850 397.3 875 400.7 887.5 402.3L900 404L900 451L887.5 451C875 451 850 451 825 451C800 451 775 451 750 451C725 451 700 451 675 451C650 451 625 451 600 451C575 451 550 451 525 451C500 451 475 451 450 451C425 451 400 451 375 451C350 451 325 451 300 451C275 451 250 451 225 451C200 451 175 451 150 451C125 451 100 451 75 451C50 451 25 451 12.5 451L0 451Z" fill="#519ab1"></path><path d="M0 423L12.5 424.7C25 426.3 50 429.7 75 428.7C100 427.7 125 422.3 150 421C175 419.7 200 422.3 225 423.8C250 425.3 275 425.7 300 426.7C325 427.7 350 429.3 375 429C400 428.7 425 426.3 450 425C475 423.7 500 423.3 525 424C550 424.7 575 426.3 600 425.5C625 424.7 650 421.3 675 420.2C700 419 725 420 750 420.5C775 421 800 421 825 421.2C850 421.3 875 421.7 887.5 421.8L900 422L900 451L887.5 451C875 451 850 451 825 451C800 451 775 451 750 451C725 451 700 451 675 451C650 451 625 451 600 451C575 451 550 451 525 451C500 451 475 451 450 451C425 451 400 451 375 451C350 451 325 451 300 451C275 451 250 451 225 451C200 451 175 451 150 451C125 451 100 451 75 451C50 451 25 451 12.5 451L0 451Z" fill="#77b1bb"></path></svg>