<svg id="visual" viewBox="0 0 900 450" width="900" height="450" xmlns="http://www.w3.org/2000/svg" xmlns:xlink="http://www.w3.org/1999/xlink" version="1.1"><path d="M0 360L12.5 359.2C25 358.3 50 356.7 75 356C100 355.3 125 355.7 150 354C175 352.3 200 348.7 225 345C250 341.3 275 337.7 300 337C325 336.3 350 338.7 375 338.2C400 337.7 425 334.3 450 333.5C475 332.7 500 334.3 525 335.3C550 336.3 575 336.7 600 336.2C625 335.7 650 334.3 675 337.7C700 341 725 349 750 353C775 357 800 357 825 355.2C850 353.3 875 349.7 887.5 347.8L900 346L900 451L887.5 451C875 451 850 451 825 451C800 451 775 451 750 451C725 451 700 451 675 451C650 451 625 451 600 451C575 451 550 451 525 451C500 451 475 451 450 451C425 451 400 451 375 451C350 451 325 451 300 451C275 451 250 451 225 451C200 451 175 451 150 451C125 451 100 451 75 451C50 451 25 451 12.5 451L0 451Z" fill="#00518f"></path><path d="M0 351L12.5 353.5C25 356 50 361 75 362.8C100 364.7 125 363.3 150 365C175 366.7 200 371.3 225 373.5C250 375.7 275 375.3 300 373.7C325 372 350 369 375 366.3C400 363.7 425 361.3 450 360.5C475 359.7 500 360.3 525 363.3C550 366.3 575 371.7 600 370.3C625 369 650 361 675 359.2C700 357.3 725 361.7 750 364.3C775 367 800 368 825 366.7C850 365.3 875 361.7 887.5 359.8L900 358L900 451L887.5 451C875 451 850 451 825 451C800 451 775 451 750 451C725 451 700 451 675 451C650 451 625 451 600 451C575 451 550 451 525 451C500 451 475 451 450 451C425 451 400 451 375 451C350 451 325 451 300 451C275 451 250 451 225 451C200 451 175 451 150 451C125 451 100 451 75 451C50 451 25 451 12.5 451L0 451Z" fill="#076a9d"></path><path d="M0 381L12.5 379.7C25 378.3 50 375.7 75 376.5C100 377.3 125 381.7 150 383.5C175 385.3 200 384.7 225 386.7C250 388.7 275 393.3 300 394.8C325 396.3 350 394.7 375 394.8C400 395 425 397 450 396.2C475 395.3 500 391.7 525 389.5C550 387.3 575 386.7 600 388.2C625 389.7 650 393.3 675 394.5C700 395.7 725 394.3 750 391.8C775 389.3 800 385.7 825 385.3C850 385 875 388 887.5 389.5L900 391L900 451L887.5 451C875 451 850 451 825 451C800 451 775 451 750 451C725 451 700 451 675 451C650 451 625 451 600 451C575 451 550 451 525 451C500 451 475 451 450 451C425 451 400 451 375 451C350 451 325 451 300 451C275 451 250 451 225 451C200 451 175 451 150 451C125 451 100 451 75 451C50 451 25 451 12.5 451L0 451Z" fill="#2d82a8"></path><path d="M0 410L12.5 409.3C25 408.7 50 407.3 75 406.2C100 405 125 404 150 402.8C175 401.7 200 400.3 225 401.5C250 402.7 275 406.3 300 406.8C325 407.3 350 404.7 375 404.7C400 404.7 425 407.3 450 406.3C475 405.3 500 400.7 525 401.7C550 402.7 575 409.3 600 412.5C625 415.7 650 415.3 675 412C700 408.7 725 402.3 750 402.7C775 403 800 410 825 411.3C850 412.7 875 408.3 887.5 406.2L900 404L900 451L887.5 451C875 451 850 451 825 451C800 451 775 451 750 451C725 451 700 451 675 451C650 451 625 451 600 451C575 451 550 451 525 451C500 451 475 451 450 451C425 451 400 451 375 451C350 451 325 451 300 451C275 451 250 451 225 451C200 451 175 451 150 451C125 451 100 451 75 451C50 451 25 451 12.5 451L0 451Z" fill="#519ab1"></path><path d="M0 417L12.5 417.5C25 418 50 419 75 420.3C100 421.7 125 423.3 150 425.3C175 427.3 200 429.7 225 429.3C250 429 275 426 300 423.8C325 421.7 350 420.3 375 419.3C400 418.3 425 417.7 450 420.7C475 423.7 500 430.3 525 430.8C550 431.3 575 425.7 600 422.5C625 419.3 650 418.7 675 421.3C700 424 725 430 750 431.2C775 432.3 800 428.7 825 427C850 425.3 875 425.7 887.5 425.8L900 426L900 451L887.5 451C875 451 850 451 825 451C800 451 775 451 750 451C725 451 700 451 675 451C650 451 625 451 600 451C575 451 550 451 525 451C500 451 475 451 450 451C425 451 400 451 375 451C350 451 325 451 300 451C275 451 250 451 225 451C200 451 175 451 150 451C125 451 100 451 75 451C50 451 25 451 12.5 451L0 451Z" fill="#77b1bb"></path></svg>