<svg id="visual" viewBox="0 0 900 450" width="900" height="450" xmlns="http://www.w3.org/2000/svg" xmlns:xlink="http://www.w3.org/1999/xlink" version="1.1"><path d="M0 341L12.5 343.8C25 346.7 50 352.3 75 352.3C100 352.3 125 346.7 150 347C175 347.3 200 353.7 225 355C250 356.3 275 352.7 300 350.2C325 347.7 350 346.3 375 343.2C400 340 425 335 450 335.3C475 335.7 500 341.3 525 346.3C550 351.3 575 355.7 600 353.3C625 351 650 342 675 341.7C700 341.3 725 349.7 750 350C775 350.3 800 342.7 825 342.5C850 342.3 875 349.7 887.5 353.3L900 357L900 451L887.5 451C875 451 850 451 825 451C800 451 775 451 750 451C725 451 700 451 675 451C650 451 625 451 600 451C575 451 550 451 525 451C500 451 475 451 450 451C425 451 400 451 375 451C350 451 325 451 300 451C275 451 250 451 225 451C200 451 175 451 150 451C125 451 100 451 75 451C50 451 25 451 12.5 451L0 451Z" fill="#00518f"></path><path d="M0 378L12.5 375.3C25 372.7 50 367.3 75 364.3C100 361.3 125 360.7 150 360.2C175 359.7 200 359.3 225 362C250 364.7 275 370.3 300 371.7C325 373 350 370 375 370.7C400 371.3 425 375.7 450 377C475 378.3 500 376.7 525 375.5C550 374.3 575 373.7 600 372.7C625 371.7 650 370.3 675 370C700 369.7 725 370.3 750 371C775 371.7 800 372.3 825 371C850 369.7 875 366.3 887.5 364.7L900 363L900 451L887.5 451C875 451 850 451 825 451C800 451 775 451 750 451C725 451 700 451 675 451C650 451 625 451 600 451C575 451 550 451 525 451C500 451 475 451 450 451C425 451 400 451 375 451C350 451 325 451 300 451C275 451 250 451 225 451C200 451 175 451 150 451C125 451 100 451 75 451C50 451 25 451 12.5 451L0 451Z" fill="#076a9d"></path><path d="M0 396L12.5 395.5C25 395 50 394 75 392C100 390 125 387 150 388C175 389 200 394 225 393C250 392 275 385 300 383C325 381 350 384 375 386.7C400 389.3 425 391.7 450 389.8C475 388 500 382 525 378.7C550 375.3 575 374.7 600 374.8C625 375 650 376 675 377.2C700 378.3 725 379.7 750 382.7C775 385.7 800 390.3 825 392.2C850 394 875 393 887.5 392.5L900 392L900 451L887.5 451C875 451 850 451 825 451C800 451 775 451 750 451C725 451 700 451 675 451C650 451 625 451 600 451C575 451 550 451 525 451C500 451 475 451 450 451C425 451 400 451 375 451C350 451 325 451 300 451C275 451 250 451 225 451C200 451 175 451 150 451C125 451 100 451 75 451C50 451 25 451 12.5 451L0 451Z" fill="#2d82a8"></path><path d="M0 399L12.5 399.3C25 399.7 50 400.3 75 399.8C100 399.3 125 397.7 150 399.7C175 401.7 200 407.3 225 408C250 408.7 275 404.3 300 404.7C325 405 350 410 375 409.2C400 408.3 425 401.7 450 400.2C475 398.7 500 402.3 525 403C550 403.7 575 401.3 600 399.5C625 397.7 650 396.3 675 399.5C700 402.7 725 410.3 750 412.8C775 415.3 800 412.7 825 411.2C850 409.7 875 409.3 887.5 409.2L900 409L900 451L887.5 451C875 451 850 451 825 451C800 451 775 451 750 451C725 451 700 451 675 451C650 451 625 451 600 451C575 451 550 451 525 451C500 451 475 451 450 451C425 451 400 451 375 451C350 451 325 451 300 451C275 451 250 451 225 451C200 451 175 451 150 451C125 451 100 451 75 451C50 451 25 451 12.5 451L0 451Z" fill="#519ab1"></path><path d="M0 419L12.5 421.2C25 423.3 50 427.7 75 428.3C100 429 125 426 150 423.3C175 420.7 200 418.3 225 417.8C250 417.3 275 418.7 300 421.5C325 424.3 350 428.7 375 429.3C400 430 425 427 450 426.7C475 426.3 500 428.7 525 428.5C550 428.3 575 425.7 600 423.3C625 421 650 419 675 421.3C700 423.7 725 430.3 750 432.5C775 434.7 800 432.3 825 431.7C850 431 875 432 887.5 432.5L900 433L900 451L887.5 451C875 451 850 451 825 451C800 451 775 451 750 451C725 451 700 451 675 451C650 451 625 451 600 451C575 451 550 451 525 451C500 451 475 451 450 451C425 451 400 451 375 451C350 451 325 451 300 451C275 451 250 451 225 451C200 451 175 451 150 451C125 451 100 451 75 451C50 451 25 451 12.5 451L0 451Z" fill="#77b1bb"></path></svg>